<svg width="40" height="40" fill="none" xmlns="http://www.w3.org/2000/svg"><g clip-path="url(#a)"><path d="M20.024 38.042c-9.91 0-18.029-8.158-18.029-18.068 0-2.229.398-4.338 1.154-6.328L13.696 34.86c.12.278.318.517.637.517.318 0 .517-.239.636-.517l4.856-10.865c.04-.12.12-.24.239-.24s.159.12.238.24l4.856 10.865c.12.278.318.517.637.517.318 0 .517-.239.636-.517l10.547-21.213c.756 1.99 1.154 4.1 1.154 6.328-.08 9.91-8.198 18.068-18.108 18.068Zm0-22.167c-.12 0-.16-.12-.239-.239L14.134 2.901a16.976 16.976 0 0 1 5.89-1.035c2.07 0 4.06.358 5.89 1.035l-5.651 12.735c-.08.16-.12.239-.24.239Zm-5.771 13.093c-.12 0-.16-.119-.239-.238L4.861 10.263c1.631-2.507 3.82-4.616 6.487-6.089l6.606 14.686c.08.239.279.318.478.318h3.184c.239 0 .398-.04.517-.318L28.74 4.174a18.653 18.653 0 0 1 6.487 6.09L25.994 28.73c-.04.12-.12.238-.24.238-.119 0-.158-.119-.238-.238l-3.462-7.88c-.12-.279-.28-.319-.518-.319h-3.184c-.239 0-.398.04-.517.319l-3.343 7.88c-.04.12-.12.238-.239.238Zm5.77 10.905c11.025 0 19.9-8.875 19.9-19.899 0-11.024-8.875-19.9-19.9-19.9a19.856 19.856 0 0 0-19.898 19.9c0 11.024 8.875 19.9 19.899 19.9Z" fill="#2B3647"/></g><defs><clipPath id="a"><path fill="#fff" d="M0 0h40v40H0z"/></clipPath></defs></svg>