<svg width="40" height="40" fill="none" xmlns="http://www.w3.org/2000/svg"><g clip-path="url(#a)"><path d="M19.998 21.46c-.06 0-.175-.077-.37-.433a12.552 12.552 0 0 0-3.291-3.922 13.76 13.76 0 0 0-3.504-1.997 29.31 29.31 0 0 0-.575-.226c-1.686-.667-3.435-1.355-5.058-2.295-.18-.102-.358-.208-.533-.317.323-.567.7-1.108 1.116-1.603a10.092 10.092 0 0 1 2.089-1.885 11.878 11.878 0 0 1 2.696-1.344c2.03-.723 4.462-1.078 7.43-1.081 2.972.003 5.402.358 7.432 1.083.953.33 1.86.781 2.698 1.342a10.135 10.135 0 0 1 2.089 1.883 11.13 11.13 0 0 1 1.116 1.605c-.171.107-.353.215-.533.32-1.627.94-3.372 1.628-5.062 2.293l-.575.227a13.77 13.77 0 0 0-3.5 1.997 12.53 12.53 0 0 0-3.291 3.923c-.195.355-.312.43-.374.43Zm0 11.788c-2.573-.003-4.663-.215-6.383-.645-1.688-.42-3.092-1.066-4.293-1.98a9.654 9.654 0 0 1-2.32-2.561 12.676 12.676 0 0 1-1.35-2.947 17.163 17.163 0 0 1-.779-4.972c0-1.123.079-2.188.225-3.168 1.844.993 3.589 1.492 5.134 1.933l.358.1c2.15.619 3.857 1.429 5.225 2.48a10.301 10.301 0 0 1 2.05 2.107 10.641 10.641 0 0 1 1.462 2.875c.16.482.333.78.671.78.345 0 .514-.3.675-.78a10.207 10.207 0 0 1 3.512-4.98c1.367-1.053 3.075-1.863 5.225-2.482l.36-.1c1.543-.441 3.288-.94 5.13-1.933.15.982.227 2.045.227 3.167 0 .763-.077 2.773-.775 4.973a12.708 12.708 0 0 1-1.349 2.947 9.648 9.648 0 0 1-2.326 2.561c-1.205.914-2.609 1.56-4.29 1.98-1.725.43-3.814.642-6.389.645Zm16.154-24.26c-3.182-3.416-8.317-4.983-16.154-4.991-7.833.008-12.968 1.573-16.15 4.99C1.483 11.522 0 15.03 0 19.79c0 2.632.65 9.333 5.94 12.793 3.167 2.07 7.257 3.41 14.058 3.42 6.805-.01 10.894-1.35 14.062-3.42C39.348 29.123 40 22.42 40 19.79c0-4.747-1.495-8.28-3.85-10.805l.002.003Z" fill="#2B3647"/></g><defs><clipPath id="a"><path fill="#fff" d="M0 0h40v40H0z"/></clipPath></defs></svg>